<svg id="Livello_1" data-name="Livello 1" xmlns="http://www.w3.org/2000/svg" viewBox="0 0 171.3 31.27">
  <defs>
    <style>
      .cls-1 {
        fill: none;
      }

      .cls-2 {
        fill: #000851;
      }

      .cls-3 {
        fill: #005800;
      }
    </style>
  </defs>
  <title>SMARTBIN</title>
  <g>
    <path class="cls-1" d="M405.42,88.43c3.54,0,5.06-2.26,5.06-5.72,0-3.92-2.4-5.63-5.9-5.67a16.56,16.56,0,0,0-2.38.15,1.17,1.17,0,0,0-.9,1.21v7.66h4.12Z" transform="translate(-319.98 -73.75)"/>
    <path class="cls-1" d="M447.71,90.13v3.48h-4.12v6.48a1.56,1.56,0,0,0,1.35,1.66c.43,0,.91,0,1.43,0,3.43,0,6.59-1.48,6.59-5.89C453,92.29,450.68,90.53,447.71,90.13Z" transform="translate(-319.98 -73.75)"/>
    <path class="cls-1" d="M447.69,87a4.86,4.86,0,0,0,4.44-5c0-3.56-2.28-4.95-5.63-4.95-.66,0-1.2,0-1.64.06a1.58,1.58,0,0,0-1.29,1.66V85h4.12Z" transform="translate(-319.98 -73.75)"/>
    <path class="cls-2" d="M328.69,87.39c-3.54-1.62-5.1-3-5.1-5.85A4.45,4.45,0,0,1,328.42,77a8.89,8.89,0,0,1,3.54.73,1.37,1.37,0,0,0,1.83-1v0a1.74,1.74,0,0,0-.82-2.08,11.25,11.25,0,0,0-4.44-.83,7.92,7.92,0,0,0-8.3,8.24c0,4.27,2.59,6.84,6.78,8.59,3.46,1.58,4.83,3.2,4.83,6,0,3.06-2,5.17-5.37,5.17a10.08,10.08,0,0,1-4.5-1.11,1.37,1.37,0,0,0-1.92,1l0,.06a1.78,1.78,0,0,0,.78,2,12.91,12.91,0,0,0,5.43,1.24c6.06,0,9-4,9-8.73C335.24,91.84,333,89.37,328.69,87.39Z" transform="translate(-319.98 -73.75)"/>
    <path class="cls-2" d="M363.92,74.25H362a1.43,1.43,0,0,0-1.32,1.09l-4.23,13.58c-1.14,3.82-2.05,7.15-2.7,10.21h-.12c-.64-3.15-1.52-6.48-2.58-10.21L347,75.36a1.44,1.44,0,0,0-1.33-1.11h-1.91a1.53,1.53,0,0,0-1.41,1.55l-1.59,27a1.57,1.57,0,0,0,1.4,1.78h.33a1.52,1.52,0,0,0,1.4-1.56l.61-11.44c.23-4.54.42-9.63.49-13.41h.08c.72,3.6,1.75,7.52,3,11.79l3.82,13.31a1.45,1.45,0,0,0,1.34,1.13h.51A1.44,1.44,0,0,0,355,103.3l4.19-13.62c1.29-4.18,2.36-8,3.24-11.52h.11c0,3.78.19,8.87.38,13.1l.57,11.75a1.53,1.53,0,0,0,1.41,1.56h.4a1.57,1.57,0,0,0,1.41-1.76l-1.42-27A1.53,1.53,0,0,0,363.92,74.25Z" transform="translate(-319.98 -73.75)"/>
    <path class="cls-2" d="M384.36,75.37A1.44,1.44,0,0,0,383,74.25h-2a1.46,1.46,0,0,0-1.34,1.13l-7.76,27a1.64,1.64,0,0,0,1.34,2.2h.44a1.45,1.45,0,0,0,1.34-1.14l2-7.25.1-.37,3.42-12.61c.5-1.84.91-3.69,1.29-5.49H382c.38,1.76.76,3.56,1.33,5.54l1.88,6.52,3.74,13.68a1.44,1.44,0,0,0,1.33,1.12h.56a1.64,1.64,0,0,0,1.34-2.2Z" transform="translate(-319.98 -73.75)"/>
    <path class="cls-2" d="M412.73,96.25c-.61-3.15-1.79-5.31-3.77-6.12V90c2.71-1.08,4.84-3.74,4.84-7.74a8.3,8.3,0,0,0-2-5.76c-1.6-1.71-3.88-2.48-7.42-2.48a33.21,33.21,0,0,0-4.92.35A1.89,1.89,0,0,0,398,76.32v26.3a1.82,1.82,0,0,0,1.66,1.95h0a1.82,1.82,0,0,0,1.65-1.95V79.07a1.86,1.86,0,0,1,1.51-1.95c.5-.05,1.09-.08,1.76-.08,3.51,0,5.91,1.75,5.91,5.67,0,3.25-1.34,5.45-4.45,5.7a.7.7,0,0,0-.61.74v1.6a.72.72,0,0,0,.56.74c2.5.3,2.87,1.93,3.58,5.84.57,3,1,5.22,1.42,6.46a1.09,1.09,0,0,0,1.13.78h.25A1.9,1.9,0,0,0,414,102.1C413.61,100.62,413.21,98.64,412.73,96.25Z" transform="translate(-319.98 -73.75)"/>
    <path class="cls-2" d="M434.72,74.25H418.54a1.69,1.69,0,0,0,0,3.33h5a1.55,1.55,0,0,1,1.41,1.66v23.67a1.55,1.55,0,0,0,1.41,1.66h.53a1.55,1.55,0,0,0,1.41-1.66V79.24a1.55,1.55,0,0,1,1.41-1.66h5a1.69,1.69,0,0,0,0-3.33Z" transform="translate(-319.98 -73.75)"/>
    <path class="cls-3" d="M451.17,88.33v-.09a7.12,7.12,0,0,0,4.34-6.66,6.84,6.84,0,0,0-2.13-5.35c-1.6-1.53-3.73-2.21-7-2.21a30.52,30.52,0,0,0-5,.41,1.43,1.43,0,0,0-1,1.47v27.26a1.41,1.41,0,0,0,1.13,1.48,38.4,38.4,0,0,0,4,.2c4.19,0,7.09-.9,8.88-2.83a9,9,0,0,0,2.16-6.07A7.56,7.56,0,0,0,451.17,88.33Zm-3.46.57a1.42,1.42,0,0,0,1,1.42A5.31,5.31,0,0,1,453,95.89c0,4.41-3.16,5.89-6.59,5.89-.59,0-1.13,0-1.6,0a1.4,1.4,0,0,1-1.18-1.48V78.6a1.43,1.43,0,0,1,1.16-1.49c.47,0,1.05-.07,1.77-.07,3.35,0,5.64,1.39,5.64,4.95,0,2.38-.72,3.91-3.24,4.54-.38.1-1.21.26-1.21,1" transform="translate(-319.98 -73.75)"/>
    <path class="cls-3" d="M463.73,74.25h-.5a1.55,1.55,0,0,0-1.4,1.66v27a1.55,1.55,0,0,0,1.4,1.66h.5a1.55,1.55,0,0,0,1.41-1.66v-27A1.55,1.55,0,0,0,463.73,74.25Z" transform="translate(-319.98 -73.75)"/>
    <path class="cls-3" d="M489.87,74.25h-.31a1.55,1.55,0,0,0-1.4,1.66v11c0,4.72.07,8.41.38,12.46l-.08,0a91.56,91.56,0,0,0-4.61-9.85L476.05,75a1.38,1.38,0,0,0-1.19-.77h-1.44A1.55,1.55,0,0,0,472,75.91v27a1.55,1.55,0,0,0,1.41,1.66h.31a1.55,1.55,0,0,0,1.41-1.66V91.62c0-5-.08-8.69-.27-12.51l.11,0a103.65,103.65,0,0,0,4.8,10.13l7.73,14.6a1.37,1.37,0,0,0,1.2.78h1.16a1.55,1.55,0,0,0,1.41-1.66v-27A1.55,1.55,0,0,0,489.87,74.25Z" transform="translate(-319.98 -73.75)"/>
  </g>
</svg>
